<svg xmlns="http://www.w3.org/2000/svg" viewBox="0 0 1092 1024" width="100%" height="100%"><path d="M439.534933 865.962667a79.018667 79.018667 0 1 1 0 158.037333 79.018667 79.018667 0 0 1 0-158.037333z m421.376 0a79.018667 79.018667 0 1 1 0 158.037333 79.018667 79.018667 0 0 1 0-158.037333zM127.488 4.608c53.896533 9.045333 94.276267 31.402667 114.346667 73.181867l2.048 4.4032 1.1264-0.170667 77.380266 488.379733 8.977067 35.771734c18.432 68.608 79.121067 124.6208 133.870933 127.965866l5.12 0.136534h353.416534c54.3744 0 116.1216-53.930667 137.147733-121.719467l1.8432-6.382933 54.510933-202.717867c16.622933-61.781333-29.252267-111.957333-108.9536-114.346667l-6.0416-0.1024H339.182933V236.3392h563.0976c113.425067 0 189.815467 78.097067 167.253334 175.274667l-1.365334 5.5296-54.510933 202.717866c-24.234667 90.043733-104.106667 163.4304-183.9104 166.980267l-5.973333 0.136533H470.357333c-79.735467 0-160.9728-71.202133-187.938133-160.426666l-1.911467-6.690134-8.430933-33.416533-0.477867 0.068267L192.989867 90.282667c-14.404267-16.861867-39.0144-27.989333-72.123734-33.553067-22.7328-3.822933-45.7728-4.676267-71.918933-3.652267l-28.672 1.501867H18.773333V1.9456L24.405333 1.706667l10.922667-0.682667c33.655467-1.877333 62.634667-1.365333 92.16 3.618133z" fill="#3586FF" ></path></svg>